<svg width="686" height="123" viewBox="0 0 686 123" fill="none" xmlns="http://www.w3.org/2000/svg">
<path d="M244.718 29.8393L232.538 31.1311L231.511 22.691L212.613 44.6096L221.759 43.6192L228.013 94.1738L234.779 99.1689L240.145 92.925L248.216 83.5375L244.811 81.0399L239.397 87.2838L233.938 42.3704L244.718 29.8393ZM308.597 31.6479L305.845 9.16962L295.672 1.71992L287.553 11.1074L294.319 16.1026L302.299 80.6953L315.831 90.6428L323.902 81.2551L313.777 73.7624L308.597 31.6479ZM308.597 31.6479L318.77 39.0976L323.996 81.2121L334.775 68.6812L330.25 32.1647L316.67 22.2604L308.597 31.6479ZM73 104.207L65.8607 98.9967L57.5082 31.1311L46.8225 23.2939L38.2833 33.1551L45.4226 38.3656L47.2425 53.0497L33.1505 69.4132L28.811 34.1455L18.1252 26.3083L18.0786 26.3513L18.0318 26.3083L1.04684 46.0306L4.68651 48.7004L13.179 38.8392L16.7254 41.466L25.8245 115.145L32.9638 120.355L38.6099 113.81L34.6903 82.1165L48.7823 65.753L53.7752 106.231L68.0072 116.695L82.1926 100.288L78.6461 97.6618L73 104.207ZM262.962 36.4708L252.184 49.0019L256.709 85.5183L270.241 95.4656L278.314 86.0781L268.141 78.5853L262.962 36.4708ZM262.962 36.4708L273.135 43.9206L278.314 86.0351L289.092 73.5041L284.567 36.9876L270.987 27.0403L262.962 36.4708ZM374.765 27.4709L361.279 17.5666L353.207 26.9541L363.285 34.3608L355.26 43.6622L353.207 26.9541L342.428 39.4852L346.955 76.0017L360.485 85.9489L365.899 79.7049L368.606 76.5615L376.679 67.174L373.272 64.6764L365.199 74.0639L358.433 69.0686L356.007 49.2602L374.765 27.4709ZM96.6578 53.9539L85.8788 66.442L90.3583 102.958L103.937 112.906L112.01 103.518L101.837 96.0684L96.6578 53.9539ZM118.309 54.5137L104.73 44.5664L96.6578 53.9539L106.83 61.4037L112.01 103.518L122.182 110.968L130.255 101.58L123.489 96.6282L118.309 54.5137ZM156.338 96.0254L149.573 91.0302L144.393 48.9157L133.614 61.4467L138.14 97.9632L151.673 107.911L157.086 101.666L159.792 98.523L167.864 89.1356L164.458 86.6379L156.338 96.0254ZM144.347 48.8727L154.52 56.3223L162.591 46.9348L152.419 39.4852L144.347 48.8727ZM193.016 35.3082L184.943 44.6956L195.115 52.1453L203.187 42.7578L193.016 35.3082ZM193.762 66.485L197.589 97.3603L204.353 102.355L209.767 96.1116L205.241 59.5951L195.069 52.1453L186.996 61.5329L193.762 66.485ZM182.143 22.2174L171.97 14.7676L163.898 24.1551L170.664 29.1503L179.343 99.3412L186.109 104.336L191.523 98.0924L186.996 61.5759L184.896 44.7388L182.143 22.2174ZM406.916 12.7868L398.796 22.1743L408.968 29.6241L417.041 20.2365L406.916 12.7868ZM380.551 24.1121L387.317 29.1073L393.197 76.8199L399.962 81.8149L405.329 75.5711L398.796 22.1743L388.624 14.7246L380.551 24.1121Z" fill="url(#paint0_linear)"/>
<path d="M244.67 29.7545L232.491 31.0464L231.465 22.6063L212.613 44.4817L221.759 43.5343L228.011 94.0889L234.777 99.0841L240.143 92.8401L248.216 83.4526L244.81 80.955L239.443 87.199L233.891 42.2425L244.67 29.7545ZM308.55 31.5632L305.752 9.08479L295.625 1.63509L287.553 11.0226L294.319 15.9747L302.298 80.5675L315.83 90.5148L323.903 81.1274L313.73 73.6345L308.55 31.5632ZM308.55 31.5632L318.723 39.0128L323.903 81.1274L334.682 68.5963L330.203 32.123L316.67 22.1755L308.55 31.5632ZM72.9531 104.122L65.8138 98.9119L57.4147 31.0464L46.7289 23.2091L38.2832 33.0272L45.4225 38.2376L47.2423 52.9218L33.1503 69.2853L28.7641 34.0606L18.0783 26.1803L18.0317 26.2234L17.9851 26.1803L1 45.9457L4.63965 48.6155L13.1322 38.7544L16.6785 41.3812L25.7776 115.06L32.9169 120.27L38.563 113.682L34.6435 81.9886L48.7355 65.625L53.7283 106.103L67.9603 116.567L82.1457 100.161L78.5992 97.5339L72.9531 104.122ZM262.962 36.343L252.182 48.8309L256.709 85.3474L270.242 95.2947L278.314 85.9072L268.142 78.4575L262.962 36.343ZM262.962 36.343L273.135 43.7927L278.314 85.9072L289.092 73.3761L284.567 36.8596L270.987 26.9124L262.962 36.343ZM374.718 27.3861L361.233 17.4819L353.16 26.8693L363.24 34.276L355.213 43.5773L353.16 26.8693L342.381 39.4004L346.908 75.9168L360.44 85.8642L365.852 79.6202L368.558 76.4766L376.631 67.0891L373.225 64.5916L365.152 73.9791L358.386 68.9839L355.96 49.1753L374.718 27.3861ZM96.6109 53.8692L85.8319 66.4001L90.3582 102.917L103.89 112.864L111.963 103.476L101.79 96.0267L96.6109 53.8692ZM118.262 54.429L104.683 44.4817L96.6109 53.8692L106.783 61.3188L111.963 103.433L122.135 110.883L130.208 101.496L123.442 96.5003L118.262 54.429ZM156.338 95.8975L149.573 90.9024L144.393 48.7879L133.614 61.3188L138.14 97.8353L151.719 107.783L157.086 101.539L159.791 98.3951L167.911 89.0076L164.505 86.51L156.338 95.8975ZM144.346 48.7447L154.518 56.1945L162.591 46.8069L152.419 39.3573L144.346 48.7447ZM192.969 35.1802L184.896 44.5677L195.069 52.0175L203.14 42.63L192.969 35.1802ZM193.762 66.4001L197.588 97.2755L204.354 102.271L209.767 96.0267L205.24 59.5102L195.069 52.0605L186.949 61.405L193.762 66.4001ZM182.096 22.0895L171.923 14.6398L163.852 24.0273L170.618 28.9794L179.296 99.1703L186.062 104.165L191.476 97.9215L186.949 61.448L184.849 44.6109L182.096 22.0895ZM406.869 12.702L398.796 22.0895L408.968 29.5392L417.04 20.1517L406.869 12.702ZM380.504 23.9841L387.316 28.9794L393.196 76.6919L399.962 81.6872L405.328 75.4431L398.796 22.0895L388.623 14.5967L380.504 23.9841Z" stroke="#92EAFF" stroke-width="1.52654" stroke-linecap="round" stroke-linejoin="round"/>
<path d="M331.387 81.466L320.979 83.0358L321.468 85.7982L331.876 84.2283L331.387 81.466Z" fill="#92EAFF"/>
<path d="M339.958 80.0379L335.122 80.7673L335.613 83.5296L340.447 82.8003L339.958 80.0379Z" fill="#92EAFF"/>
<path d="M362.997 52.4239L356.918 53.3408L357.407 56.1032L363.487 55.1862L362.997 52.4239Z" fill="#92EAFF"/>
<path d="M383.894 36.1135L376.203 37.2735L376.692 40.036L384.383 38.8759L383.894 36.1135Z" fill="#92EAFF"/>
<path d="M368.791 38.2925L363.218 39.133L363.707 41.8953L369.28 41.0549L368.791 38.2925Z" fill="#92EAFF"/>
<path d="M400.407 34.0117L397.504 34.4444L397.987 37.2076L400.889 36.7749L400.407 34.0117Z" fill="#92EAFF"/>
<path d="M418.51 30.4815L415.609 30.9142L416.092 33.6774L418.995 33.2447L418.51 30.4815Z" fill="#92EAFF"/>
<path d="M344.574 63.1994L339.785 63.9218L340.274 66.6841L345.063 65.9617L344.574 63.1994Z" fill="#92EAFF"/>
<path d="M407.376 38.8567L401.298 39.7735L401.787 42.5358L407.865 41.619L407.376 38.8567Z" fill="#92EAFF"/>
<path d="M424.778 36.1987L411.47 38.206L411.96 40.9684L425.267 38.961L424.778 36.1987Z" fill="#92EAFF"/>
<path d="M431.561 35.0145L428.2 35.5216L428.689 38.2839L432.051 37.7769L431.561 35.0145Z" fill="#92EAFF"/>
<path d="M389.268 48.1168L383.19 49.0336L383.679 51.7959L389.758 50.8792L389.268 48.1168Z" fill="#92EAFF"/>
<path d="M443.685 57.1415C446.204 56.4525 448.631 55.5913 451.011 54.5577C452.831 53.0075 452.877 53.0937 454.463 51.4143C453.997 50.5099 454.931 49.7779 455.35 49.4335L456.75 49.2181C456.657 48.7013 456.47 48.1847 456.236 47.7109L454.557 47.6249L453.484 47.754C453.297 47.7109 453.111 47.6249 452.924 47.5817C452.831 47.6679 452.738 47.7971 452.597 47.8831L450.638 48.1415C450.545 47.7971 450.311 47.3665 450.451 47.2803C450.777 47.1511 451.151 46.9359 451.011 46.7205H451.711L455.443 46.3329C455.07 45.687 454.697 45.0841 454.277 44.4813L453.39 44.5243L449.004 44.955L447.279 44.7397L446.018 44.8688C445.551 44.6966 445.038 44.5674 444.572 44.4382C444.197 44.3521 441.399 45.5148 439.858 44.5243C434.026 45.4717 413.914 48.6153 408.082 49.0459C401.969 49.5625 395.857 50.4239 389.836 51.5865C389.603 51.9309 389.37 52.2325 389.184 52.5339C386.243 59.9405 382.838 67.1748 379.011 74.1939C377.704 74.1509 376.352 74.1079 374.997 74.0217C373.504 74.4523 371.965 74.7537 370.425 74.8829C367.438 75.0553 364.919 77.9403 366.226 80.5671C367.299 82.8494 368.886 84.8734 370.845 86.5528C371.265 86.8542 371.685 87.1556 372.104 87.414C371.404 88.9212 370.985 90.5574 370.845 92.1938C370.752 93.4426 371.731 94.7345 371.358 95.8971C370.845 97.4043 369.865 99.2129 368.465 100.16C365.619 102.055 365.572 104.639 364.64 107.05C363.706 109.462 364.265 112.175 361.047 114.112C360.206 114.586 360.765 117.127 360.672 118.763C360.672 119.581 360.999 120.959 360.672 121.088L361.326 121.39C364.872 120.012 368.419 118.591 372.011 117.17C372.618 116.911 373.272 116.911 373.879 117.17C375.184 116.739 376.538 116.308 377.845 115.921C377.938 115.878 378.031 115.878 378.077 115.878C378.17 115.49 378.265 115.103 378.358 114.715C378.684 112.993 378.87 111.055 379.897 109.591C381.018 107.998 383.864 107.266 381.95 104.682C381.531 104.122 383.211 102.012 384.236 100.763C387.27 97.0599 389.043 92.9259 390.677 88.792C391.05 88.4044 391.516 88.146 392.077 88.0598C403.509 85.7776 415.08 84.4858 426.653 83.5814C427.633 81.4284 429.546 79.7059 431.926 78.8877C432.346 78.6293 433.092 78.5863 433.653 78.4141C433.699 78.3279 433.746 78.2417 433.746 78.1557C433.326 77.8973 432.906 77.5959 432.579 77.2513C431.879 76.9069 431.272 76.6055 431.692 76.1317C430.992 74.9261 430.667 73.5911 430.806 72.2131C430.246 72.0839 429.686 71.9547 429.126 71.8687C428.053 71.6964 426.84 71.1797 425.86 71.438C420.167 73.0743 414.287 72.6437 408.455 72.4715C404.816 73.2467 401.13 73.7633 397.396 74.0217C398.75 71.5672 400.196 69.1557 401.596 66.7012C402.062 65.926 403.323 65.0218 404.209 64.9788C416.48 62.2228 429.546 60.7156 440.231 58.0888H440.745L443.918 57.8305L443.685 57.1415ZM663.883 24.9311C662.997 24.1131 661.878 23.5533 660.665 23.2517C660.338 23.6393 659.871 23.9839 659.358 24.1991C659.311 23.8547 659.171 23.2517 659.311 23.2087C659.685 23.0795 660.104 22.9503 660.478 22.9503C660.338 21.6585 666.077 20.3666 660.897 19.7638C658.424 19.4623 655.905 19.5484 653.431 20.0221C646.946 21.2279 640.412 22.0891 633.834 22.5197C625.575 23.1657 617.409 24.7589 609.382 26.3953C606.302 27.0413 603.829 26.6537 601.077 26.6967C600.097 26.6537 599.117 26.7829 598.183 27.0843L595.338 27.1703L592.724 27.8593L590.251 27.6871L588.478 27.6011L587.265 28.1609C586.938 27.9885 586.565 27.9025 586.144 27.9025C583.905 27.6871 581.665 27.6871 579.426 27.8593C578.678 27.9455 575.506 28.8929 574.76 28.9789C573.779 29.1081 570.699 29.4527 569.999 29.2805C565.053 30.5723 564.26 31.6058 559.36 32.9838C556.98 33.6297 554.648 34.4048 552.314 35.0938C551.895 35.7828 551.055 36.4718 550.448 36.558C540.323 38.3664 548.209 36.1272 540.275 40.5626L539.716 40.9932C535.75 42.0268 531.97 42.8449 528.89 45.4287C528.377 46.4191 527.817 47.4525 527.163 48.4861C526.138 50.0793 525.857 51.3711 527.07 52.9645C529.263 55.8927 528.284 56.6247 531.784 59.1224C532.063 59.3376 531.97 59.8544 531.829 60.4572C533.277 61.2754 534.723 62.0074 536.17 62.6964C535.983 63.3854 535.843 63.9452 535.936 63.9884C536.682 64.6342 537.616 65.108 538.55 65.4094C541.536 66.1414 544.289 67.6486 547.462 67.6916C549.189 67.7346 550.914 68.5098 552.548 68.1653C554.182 67.8208 553.248 67.7346 552.689 67.7778L553.201 67.7347C553.341 67.7347 553.482 67.6916 553.621 67.6916C554.555 67.7778 555.394 68.3376 556.328 68.5959C558.941 69.328 557.214 69.2418 558.614 69.2849C558.755 69.4141 558.848 69.5433 558.987 69.5433C563.514 69.0265 565.519 71.2658 569.812 71.9547C562.207 76.4763 558.567 81.3853 551.521 84.5719C550.541 83.8398 549.607 83.4954 548.675 84.701C548.395 85.0886 548.161 85.5192 548.021 85.993C547.882 85.993 547.741 85.9498 547.602 85.9068L546.575 86.5528L547.741 86.5096C547.648 86.768 547.462 87.0264 547.228 87.1986C546.389 87.8446 545.316 88.3614 544.429 88.146C542.655 87.7154 541.582 89.1796 540.229 90.1268C538.875 91.0742 537.895 92.969 536.029 92.323C535.563 92.1508 534.629 93.9594 533.929 94.8637C533.556 95.3373 533.09 96.3278 532.95 96.2417C530.336 94.8206 528.936 100.074 526.324 98.6961C526.184 98.6101 525.39 99.8157 525.438 100.117C526.65 104.467 524.55 103.132 523.104 102.658C521.284 102.012 520.211 103.648 519.231 105.199C518.858 105.801 519.231 107.179 518.997 108.084C518.765 108.988 518.111 109.591 517.69 110.323C518.345 110.021 518.951 109.677 519.511 109.289C520.211 108.859 520.677 108.256 520.958 107.524C521.19 106.749 521.658 106.06 522.263 105.543C522.311 105.5 522.59 105.931 522.777 106.146C522.451 106.577 522.124 107.007 521.751 107.395C521.611 107.524 521.331 107.352 520.958 107.481C522.077 109.376 522.777 108.127 523.431 107.567C525.297 106.017 527.163 104.423 529.029 102.873L531.177 103.562L533.509 103.002C533.323 103.175 533.136 103.347 532.997 103.562C532.67 104.165 532.623 104.983 532.436 105.715C532.997 105.845 533.556 105.845 534.116 105.801C536.636 105.242 540.368 105.888 542.468 103.821C543.309 102.959 544.195 101.926 545.175 101.624C546.202 101.28 547.509 102.443 547.975 99.8589C547.975 99.7727 548.021 99.7297 548.068 99.6435C548.489 99.4283 548.909 99.2129 549.328 99.0407C549.702 98.9545 550.075 98.8685 550.402 98.7823C552.782 98.3087 551.848 96.5861 553.994 95.1651C558.614 93.2273 561.228 91.591 564.726 90.299C564.726 90.0408 564.773 89.7824 564.821 89.7394C568.833 87.6724 572.799 84.5288 576.812 84.0552C580.733 83.5814 582.924 80.481 586.004 78.8447C586.145 78.7585 586.378 77.8543 586.565 76.7347C588.244 74.5385 587.265 70.1461 586.144 67.261C585.072 66.8304 583.905 66.529 582.785 66.2706C581.151 65.9692 580.312 65.3232 579.985 63.3854C579.612 61.3184 578.306 60.4572 576.392 61.2324C575.972 61.749 575.553 62.309 575.133 62.8256C574.806 62.438 574.385 62.0936 573.919 61.8352C573.592 61.706 573.312 61.5338 573.078 61.2754C573.312 61.1462 573.685 60.8448 573.733 60.8878C573.919 61.1032 574.199 60.7156 574.339 61.017L575.506 60.5864C575.506 59.8544 574.946 59.3376 573.453 59.2516C571.26 59.0792 569.16 58.3042 567.06 57.8305C566.919 57.8735 566.733 57.8735 566.594 57.8735C563.794 57.6152 562.953 57.0553 560.153 56.4525L560.248 54.6008C558.1 54.73 559.08 55.2467 556.98 55.2898C554.787 54.6869 552.641 54.0841 550.495 53.4381C550.355 53.7827 550.168 54.0841 549.889 54.3425C548.489 53.7827 547.089 53.1797 545.641 53.2229C545.175 53.2229 544.709 53.2659 544.241 53.3521C544.522 50.8975 547.416 51.7587 548.582 50.5099C548.675 50.4239 548.768 50.3377 548.862 50.2947C553.434 49.0889 554.928 47.7109 559.455 46.8497C567.294 45.4287 562.767 45.9454 570.326 43.4478C572.612 42.7158 574.526 42.5866 576.485 42.4574H576.578C577.092 42.4143 577.606 42.3712 578.119 42.3282C578.958 42.242 580.592 42.242 582.412 41.9836C582.505 42.0698 582.785 42.0268 583.299 41.8545L583.438 41.8114C583.999 41.7253 584.512 41.5962 585.024 41.4238L586.051 41.2516H586.099L587.778 41.7253L587.685 42.5866L588.524 42.888L597.438 39.8306L597.577 39.7876C598.231 39.7444 598.79 39.7014 599.117 39.7014C599.911 39.7014 602.104 41.3378 602.897 41.2946C607.656 41.1224 609.009 44.2229 606.909 48.5291C604.856 52.7491 602.477 53.3951 602.243 58.1319C602.243 58.6917 602.383 59.2946 602.616 59.8114C601.777 61.3616 600.983 62.8688 600.143 64.419C600.236 64.7204 600.236 65.0648 600.236 65.4094C597.811 67.1318 597.763 69.4141 596.97 71.6103C596.783 72.2131 596.597 72.8591 596.504 73.4619C595.897 74.7969 595.29 76.0887 594.777 77.3375C594.497 77.5959 594.17 77.8111 593.844 78.0265C593.377 78.3279 593.424 79.3183 593.517 80.3949C591.977 84.2704 593.004 84.3996 592.07 88.3614C591.651 89.1794 590.904 89.8254 590.017 90.213C589.785 90.299 589.878 92.1076 590.251 92.1938C590.624 92.28 590.904 92.4092 591.138 92.4952C590.904 93.701 590.672 94.9498 590.438 96.2417C590.158 96.3709 589.924 96.5431 589.69 96.6723C586.892 98.3517 587.078 100.72 587.265 102.916C587.358 103.778 589.085 104.294 589.597 105.199L591.372 105.457C591.744 104.423 591.931 103.39 591.511 102.572C591.372 102.227 591.277 101.84 591.231 101.452C591.604 101.151 592.024 100.849 592.49 100.548C592.49 100.892 592.444 101.237 592.397 101.581C592.351 101.84 591.838 102.055 591.558 102.529C594.638 102.572 594.358 100.849 594.683 99.7297C594.777 99.3851 594.87 98.9977 594.963 98.6531C595.524 98.1363 596.038 97.5765 596.55 96.9737C596.363 96.5001 596.363 95.9833 596.456 95.4665C596.783 95.4665 597.438 95.3805 597.438 95.5096C597.343 95.9833 597.156 96.4139 596.97 96.8445C598.277 96.8445 595.944 103.175 599.77 97.6197C601.59 95.079 603.036 92.366 604.202 89.524C604.436 88.9212 604.716 88.2752 604.997 87.6724L605.043 87.7154C605.743 87.0694 606.629 86.5528 607.189 85.8206C609.756 82.5049 608.916 82.3757 609.616 78.5001C609.895 76.9499 609.989 75.1845 610.922 73.8495C611.856 72.5145 614.236 71.7825 612.882 69.6725C613.536 68.3376 614.236 66.9596 614.843 65.6246C618.341 61.1894 618.716 59.2516 620.582 54.4285C622.728 48.7875 625.714 43.577 628.655 38.3234C629.027 37.6344 630.194 36.8162 630.987 36.7302C641.673 35.955 648.253 34.6202 656.838 31.089C659.638 29.2373 662.483 27.4287 665.377 25.6633C664.631 25.5771 664.258 25.2757 663.883 24.9311ZM514.611 87.1126L511.906 86.4666L507.845 86.036L494.407 87.9738C493.38 87.5432 492.401 87.2418 491.933 87.5862C488.807 89.6962 486.287 88.2752 483.58 88.2752C480.875 88.2752 478.262 87.457 475.275 89.2226C473.829 90.0838 471.636 90.3422 469.909 90.256C468.65 90.213 467.716 88.9212 466.457 88.5766C465.85 88.4044 465.243 88.2752 464.589 88.189C466.363 85.4762 467.902 81.0408 469.209 78.2417C469.536 78.3279 469.816 78.4141 470.096 78.5863L470.609 78.5433C471.075 78.0695 471.682 77.7681 472.336 77.6819C484.701 75.5719 497.206 74.4523 509.665 73.6773C510.879 71.5241 512.978 69.8878 515.499 69.1557C515.965 68.8974 516.804 68.8974 517.365 68.7251C517.458 68.682 517.504 68.5529 517.504 68.4668C517.038 68.2084 516.665 67.907 516.292 67.5624C515.545 67.218 514.892 66.9165 515.358 66.4858C514.611 65.3232 514.331 63.9452 514.518 62.6104C513.911 62.4812 513.351 62.352 512.745 62.2658C511.578 62.0506 510.272 61.5338 509.245 61.7922C503.085 63.3424 496.787 62.8688 490.487 62.6104C485.914 63.4286 481.294 63.9452 476.675 64.1174C478.121 61.8352 479.568 59.553 481.062 57.2707C481.528 56.5386 483.114 54.0841 483.955 54.041C494.64 53.3089 501.64 52.0601 510.085 49.0459L516.338 48.3569H516.992L520.211 48.0985L519.884 47.2373L516.711 46.9789L516.851 46.4191C517.411 45.9885 517.972 45.5148 518.484 45.0411L523.197 44.0507H523.29C523.338 43.4047 523.384 42.7588 523.431 42.1128L521.938 41.8976L522.17 41.6822C521.984 41.51 521.797 41.3808 521.611 41.1654L523.477 40.9072C523.477 40.3042 523.524 39.7014 523.524 39.0986C523.524 39.0554 523.524 38.8832 523.524 38.668L518.018 38.9262L519.09 38.1942L522.731 37.2468C522.59 37.0746 522.404 36.9024 522.263 36.7302L520.817 35.223L506.258 36.4718C500.38 37.376 494.453 38.022 488.667 38.4526C482.555 38.9694 476.441 39.7876 470.375 40.9072C470.143 41.2086 469.909 41.553 469.675 41.8545C466.409 48.8737 462.584 57.2707 458.477 63.9884L454.418 63.773C452.784 64.2036 451.151 64.462 449.47 64.5482C446.251 64.7204 443.452 67.5194 444.804 70.1031C445.924 72.3423 447.558 74.3663 449.565 76.0025C449.984 76.3471 450.218 78.1557 450.638 78.4141C449.704 80.0503 449.051 81.859 448.772 83.7106C448.631 84.9164 449.518 86.2082 449.097 87.3278C448.818 88.103 448.397 88.835 447.931 89.524C447.511 89.524 447.045 89.481 446.624 89.3948L445.924 89.481C446.297 89.8684 446.624 90.299 446.904 90.7298C446.624 91.0312 446.297 91.2896 445.972 91.5048C443.031 93.3565 442.845 95.8541 441.772 98.2225C440.699 100.591 441.118 103.261 437.806 105.112C436.965 105.586 437.338 108.084 437.199 109.634C437.106 110.409 437.385 111.787 437.058 111.916L437.713 112.218C441.306 110.883 444.897 109.462 448.538 108.127C449.097 107.868 449.797 107.868 450.358 108.127C451.711 107.696 453.018 107.266 454.37 106.878C454.463 106.878 454.557 106.835 454.604 106.835C454.697 106.447 454.838 106.06 454.931 105.672C455.024 105.199 455.163 104.725 455.304 104.251C460.016 104.251 464.823 104.165 469.675 102.787C471.262 102.356 474.016 101.624 474.435 102.141C476.255 104.639 478.121 102.443 480.082 102.055C481.948 101.667 483.907 102.184 485.728 102.443C490.346 103.218 495.107 103.045 499.633 101.883C500.66 101.624 501.64 100.978 502.667 100.548C502.106 99.9449 501.685 99.1699 500.985 98.7393L501.779 98.0503L502.806 96.8015L506.912 98.1363L513.724 95.4665L514.892 94.5192H515.031C515.031 94.4761 515.031 94.4331 515.078 94.39L517.085 92.7967L518.065 89.6962L516.292 88.146L514.611 87.1126Z" fill="url(#paint1_linear)"/>
<path d="M443.124 57.7447C445.645 57.0557 448.072 56.1945 450.451 55.161C452.27 53.6107 452.318 53.6969 453.904 52.0175C453.438 51.1133 454.37 50.4243 454.79 50.0367L456.19 49.8213C456.097 49.3047 455.911 48.7879 455.631 48.3143L453.997 48.2281L452.924 48.3573C452.738 48.2711 452.551 48.2281 452.365 48.1851C452.27 48.2711 452.177 48.4003 452.038 48.4865L450.079 48.7449C449.984 48.4003 449.751 47.9697 449.891 47.8835C450.218 47.7544 450.591 47.5391 450.451 47.3237H451.151L454.884 46.9363C454.511 46.2903 454.138 45.6874 453.718 45.0845L452.831 45.1276L448.445 45.6013L446.718 45.386L445.458 45.4721C444.992 45.2999 444.479 45.1707 444.012 45.0415C443.638 44.9554 440.838 46.1181 439.299 45.1276C433.467 46.075 413.355 49.2185 407.521 49.6491C401.409 50.1659 395.296 51.0271 389.277 52.1897C389.043 52.5343 388.811 52.8357 388.624 53.1371C385.684 60.5438 382.277 67.7782 378.452 74.7973C377.097 74.7541 375.792 74.7111 374.438 74.6251C372.945 75.0557 371.406 75.3571 369.865 75.4863C366.879 75.7015 364.36 78.5867 365.665 81.1703C366.74 83.4096 368.326 85.4335 370.331 87.113C370.752 87.4144 371.172 87.7158 371.592 87.9742C370.892 89.4814 370.426 91.0746 370.285 92.711C370.192 93.9598 371.172 95.2516 370.799 96.4143C370.285 97.9215 369.306 99.7301 367.906 100.677C365.058 102.572 365.013 105.156 364.079 107.567C363.146 109.979 363.706 112.692 360.486 114.629C359.647 115.103 360.206 117.644 360.113 119.28C360.067 120.098 360.44 121.476 360.113 121.605L360.767 121.907C364.313 120.529 367.858 119.108 371.406 117.73C372.013 117.472 372.665 117.472 373.272 117.73C374.579 117.299 375.931 116.869 377.238 116.481C377.331 116.481 377.424 116.438 377.472 116.438C377.565 116.051 377.658 115.663 377.752 115.275C378.079 113.553 378.265 111.615 379.291 110.151C380.411 108.558 383.257 107.826 381.345 105.242C380.924 104.682 382.604 102.572 383.631 101.323C386.663 97.62 388.436 93.486 390.07 89.3522C390.443 88.9646 390.911 88.7062 391.47 88.6202C402.902 86.3378 414.475 85.046 426.046 84.1417C427.026 81.9885 428.94 80.2661 431.319 79.4479C431.74 79.1895 432.485 79.1465 433.046 78.9743C433.14 78.8881 433.14 78.8019 433.14 78.7159C432.719 78.4575 432.299 78.1561 431.973 77.8115C431.273 77.4671 430.667 77.1657 431.087 76.6919C430.387 75.4863 430.06 74.1513 430.199 72.7733C429.64 72.6441 429.08 72.5149 428.567 72.4289C427.494 72.2566 426.28 71.7399 425.301 71.9983C419.607 73.6345 413.728 73.2039 407.896 73.0317C404.255 73.8069 400.569 74.3235 396.836 74.5819C398.189 72.1274 399.636 69.7159 401.036 67.2614C401.502 66.4862 402.762 65.582 403.648 65.539C415.921 62.783 428.987 61.2758 439.672 58.649H440.185L443.358 58.3907L443.124 57.7447ZM663.324 25.5345C662.438 24.7163 661.317 24.1565 660.105 23.8551C659.778 24.2427 659.311 24.5871 658.799 24.8025C658.799 24.4579 658.612 23.8981 658.751 23.8121C659.124 23.6829 659.544 23.5537 659.917 23.5537C659.778 22.2617 665.517 20.9699 660.338 20.3671C657.865 20.0656 655.344 20.1517 652.872 20.6255C646.385 21.8311 639.853 22.6925 633.273 23.1231C625.014 23.7689 616.848 25.3191 608.822 26.9985C605.743 27.6445 603.27 27.2569 600.517 27.2569C599.538 27.2139 598.556 27.3431 597.624 27.6445L594.777 27.7307L592.165 28.4196L589.692 28.2473L587.917 28.1613L586.705 28.7211C586.378 28.5488 586.005 28.4627 585.585 28.4627C583.345 28.2473 581.105 28.2473 578.865 28.4196C578.119 28.5057 574.946 29.4531 574.199 29.5392C573.219 29.6684 570.139 30.0129 569.439 29.8407C564.494 31.1325 563.7 32.166 558.8 33.544C556.421 34.233 554.089 34.965 551.755 35.654C551.334 36.343 550.495 37.032 549.889 37.1182C539.763 38.9266 547.648 36.6874 539.716 41.1228L539.156 41.5534C535.19 42.587 531.411 43.4051 528.331 45.9889C527.817 46.9363 527.256 48.0127 526.604 49.0463C525.577 50.6395 525.297 51.9313 526.511 53.5247C528.704 56.4529 527.724 57.1849 531.224 59.6826C531.504 59.8978 531.411 60.4146 531.27 61.0174C532.717 61.8356 534.163 62.5676 535.609 63.2566C535.423 63.9456 535.283 64.5054 535.377 64.5486C536.123 65.1944 537.056 65.6682 537.989 65.9696C540.975 66.7016 543.729 68.2088 546.902 68.2518C548.629 68.2949 550.355 69.1131 551.989 68.7255C553.621 68.338 552.689 68.338 552.128 68.338L552.641 68.2949C552.782 68.2949 552.921 68.2518 553.061 68.2518C553.995 68.338 554.834 68.8978 555.768 69.1561C558.38 69.8882 556.655 69.8021 558.055 69.8451C558.194 69.9312 558.287 70.1035 558.428 70.1035C562.953 69.5868 564.96 71.826 569.253 72.5149C561.648 77.0365 558.007 81.9455 550.961 85.1752C549.982 84.4431 549.048 84.0986 548.116 85.3044C547.834 85.6919 547.602 86.1226 547.462 86.5532C547.322 86.5532 547.182 86.51 547.041 86.467L546.016 87.113L547.182 87.0698C547.089 87.3282 546.902 87.5866 546.668 87.7588C545.829 88.4048 544.755 88.9216 543.868 88.7062C542.095 88.2756 541.023 89.7398 539.67 90.687C538.316 91.6344 537.336 93.5292 535.47 92.8832C535.004 92.711 534.07 94.5196 533.37 95.4238C532.997 95.8976 532.529 96.888 532.39 96.8019C529.777 95.3808 528.377 100.634 525.763 99.2564C525.624 99.1703 524.831 100.376 524.877 100.677C526.09 105.027 523.99 103.692 522.545 103.218C520.724 102.572 519.651 104.208 518.672 105.759C518.299 106.362 518.672 107.74 518.438 108.644C518.204 109.548 517.551 110.151 517.131 110.883C517.785 110.582 518.392 110.237 518.951 109.85C519.651 109.419 520.118 108.816 520.397 108.084C520.631 107.309 521.097 106.62 521.704 106.103C521.751 106.06 522.031 106.491 522.172 106.706C521.845 107.137 521.517 107.567 521.145 107.955C521.004 108.084 520.724 107.912 520.351 108.084C521.472 109.979 522.172 108.73 522.824 108.17C524.69 106.62 526.556 105.027 528.424 103.476L530.57 104.165L532.904 103.606C532.717 103.778 532.529 103.95 532.39 104.165C532.111 104.854 531.923 105.587 531.829 106.319C532.39 106.362 532.95 106.534 533.511 106.405C536.029 105.845 539.763 106.491 541.863 104.424C542.702 103.606 543.589 102.529 544.568 102.228C545.595 101.883 546.902 103.046 547.368 100.462C547.368 100.376 547.416 100.333 547.462 100.247C547.882 100.031 548.302 99.8162 548.722 99.6439C549.048 99.5579 549.422 99.4717 549.795 99.3855C552.175 98.9119 551.241 97.1894 553.389 95.7684C558.007 93.8306 560.621 92.1942 564.121 90.9024C564.121 90.644 564.167 90.3856 564.214 90.3426C568.226 88.2756 572.194 85.1321 576.206 84.6584C580.126 84.1847 582.319 81.0843 585.399 79.4479C585.538 79.3617 585.772 78.4575 585.958 77.3379C587.638 75.1417 586.658 70.7494 585.538 67.8642C584.465 67.4336 583.299 67.1322 582.178 66.8738C580.546 66.6154 579.705 65.9264 579.378 63.9888C579.005 61.8786 577.699 61.0606 575.785 61.8356L574.526 63.429C574.199 63.0414 573.78 62.6968 573.312 62.4384C572.987 62.3094 572.706 62.137 572.473 61.8786C572.706 61.7496 573.08 61.448 573.126 61.4912C573.312 61.7064 573.592 61.3188 573.733 61.6204L574.899 61.1898C574.899 60.4576 574.339 59.9409 572.846 59.8548C570.653 59.6826 568.553 58.9074 566.453 58.4337C566.314 58.4768 566.127 58.4768 565.987 58.4768C563.187 58.2184 562.348 57.6586 559.548 57.0557L559.641 55.2041C557.494 55.3333 558.473 55.85 556.375 55.8931C554.182 55.3333 552.034 54.6873 549.889 54.0414C549.748 54.3859 549.561 54.6873 549.282 54.9887C547.882 54.4289 546.482 53.8261 545.036 53.8691C544.568 53.8691 544.102 53.9123 543.636 53.9983C543.916 51.5439 546.809 52.4051 547.975 51.1563C548.068 51.0701 548.162 50.9841 548.255 50.9409C552.828 49.7353 554.321 48.3573 558.848 47.4961C566.687 46.075 562.16 46.5917 569.719 44.0941C572.006 43.3621 573.919 43.2329 575.878 43.1037H575.973C576.485 43.0606 576.999 43.0176 577.512 42.9745C578.353 42.8884 579.985 42.8884 581.805 42.63C581.899 42.7162 582.178 42.6731 582.692 42.5008L582.833 42.4578C583.392 42.3716 583.905 42.2424 584.419 42.0702L585.445 41.898H585.492L587.172 42.3716L587.078 43.2329L587.917 43.5343L596.783 40.52L596.924 40.477C597.577 40.4338 598.138 40.3908 598.463 40.3908C599.256 40.3908 601.45 42.0272 602.243 41.9841C607.002 41.8118 608.356 44.9123 606.256 49.2185C604.204 53.4385 601.824 54.0845 601.59 58.8213C601.59 59.3811 601.731 59.984 601.963 60.5007C601.124 62.051 600.331 63.558 599.49 65.1084C599.583 65.4098 599.583 65.7542 599.583 66.0988C597.158 67.8212 597.111 70.1035 596.317 72.2997C596.131 72.9025 595.944 73.5054 595.851 74.1513C595.244 75.4863 594.638 76.7781 594.124 78.0269C593.844 78.2853 593.517 78.5005 593.19 78.7159C592.724 79.0173 592.772 80.0077 592.865 81.0843C591.324 84.9598 592.351 85.089 591.417 89.0508C590.997 89.8688 590.251 90.5148 589.365 90.9024C589.131 90.9884 589.224 92.797 589.599 92.8832C589.972 92.9694 590.251 93.0986 590.485 93.1846C590.251 94.3904 590.017 95.6392 589.785 96.931C589.504 97.0602 589.272 97.2325 589.038 97.3617C586.238 99.0411 586.424 101.409 586.612 103.606C586.705 104.467 588.431 104.984 588.944 105.888L590.717 106.146C591.092 105.113 591.278 104.079 590.858 103.261C590.717 102.917 590.624 102.529 590.578 102.141C590.951 101.84 591.372 101.539 591.838 101.28C591.838 101.625 591.79 101.969 591.744 102.314C591.697 102.572 591.185 102.787 590.904 103.261C593.984 103.304 593.704 101.582 594.031 100.462C594.124 100.118 594.217 99.7301 594.311 99.3855C594.87 98.8688 595.383 98.309 595.897 97.7061C595.711 97.2325 595.711 96.7157 595.804 96.199C596.131 96.199 596.783 96.1129 596.783 96.2851C596.69 96.7588 596.504 97.1894 596.317 97.6201C597.624 97.6201 595.29 103.95 599.117 98.3951C600.938 95.8545 602.383 93.1416 603.55 90.2996C603.783 89.6966 604.063 89.0508 604.343 88.4478L604.39 88.491C605.09 87.845 605.977 87.3282 606.536 86.5962C609.102 83.2804 608.263 83.1512 608.963 79.2757C609.243 77.7255 609.336 75.9599 610.27 74.6251C611.202 73.2901 613.582 72.5581 612.229 70.448C612.882 69.113 613.582 67.735 614.189 66.4002C617.688 61.9218 618.061 60.027 619.929 55.161C622.075 49.5199 625.061 44.3094 628 39.0558C628.375 38.3668 629.541 37.5056 630.334 37.4626C641.019 36.6874 647.599 35.3526 656.185 31.8215C658.985 29.9698 661.831 28.1613 664.724 26.3957C664.024 26.2235 663.651 25.8789 663.324 25.5345ZM514.051 87.7158L511.345 87.0698L507.285 86.6392L493.846 88.577C492.821 88.1894 491.841 87.845 491.373 88.1894C488.248 90.2996 485.728 88.9216 482.975 88.8784C480.221 88.8354 477.655 88.0604 474.668 89.8258C473.223 90.687 471.029 90.9454 469.302 90.8594C468.043 90.8162 467.109 89.5244 465.85 89.18C465.243 89.0076 464.636 88.8784 463.984 88.7924C465.757 86.0794 467.296 81.6441 468.602 78.8451C468.929 78.9311 469.209 79.0173 469.489 79.1895L470.002 79.1465C470.468 78.6727 471.075 78.3713 471.729 78.2853C484.094 76.1753 496.601 75.0557 509.058 74.2805C510.272 72.0843 512.372 70.448 514.892 69.7159C515.358 69.4576 516.199 69.4576 516.758 69.2853C516.851 69.2422 516.899 69.113 516.899 69.027C516.431 68.7686 516.058 68.4672 515.685 68.1226C514.938 67.7782 514.285 67.4767 514.751 67.046C514.006 65.8834 513.724 64.5054 513.912 63.1706C513.306 63.0414 512.745 62.9122 512.138 62.826C510.972 62.6108 509.665 62.094 508.639 62.3524C502.48 63.9026 496.18 63.3858 489.88 63.1706C485.307 63.9888 480.689 64.5054 476.068 64.6776C477.516 62.3954 478.962 60.1132 480.455 57.8309C480.921 57.0988 482.507 54.6443 483.348 54.6012C494.033 53.8691 501.033 52.6203 509.479 49.5629L515.731 48.9171H516.385L519.558 48.6587L519.231 47.7975L516.058 47.5391L516.199 46.9793C516.758 46.5056 517.318 46.075 517.831 45.6013L522.545 44.6109H522.638C522.684 43.9649 522.731 43.319 522.777 42.6731L521.284 42.4578L521.517 42.2424C521.331 42.0702 521.145 41.941 520.958 41.7257L522.824 41.4674C522.872 40.8644 522.872 40.2616 522.872 39.7018C522.872 39.6588 522.872 39.4864 522.872 39.2712L517.365 39.5296L518.485 38.8406L522.124 37.8932C521.984 37.721 521.797 37.5488 521.658 37.3764C521.19 36.8598 520.678 36.386 520.211 35.8694L505.653 37.1182C499.773 38.0654 493.846 38.6684 488.062 39.099C481.948 39.6156 475.836 40.4338 469.77 41.5534C469.536 41.8549 469.302 42.1994 469.07 42.5008C465.802 49.5199 461.977 57.917 457.87 64.6346C456.518 64.5916 455.163 64.5054 453.811 64.4194C452.177 64.85 450.545 65.1084 448.818 65.1944C445.599 65.3666 442.799 68.1657 444.151 70.7494C445.272 72.9887 446.904 75.0125 448.911 76.6489C449.331 76.9503 449.565 78.8019 449.984 79.0603C449.051 80.6967 448.397 82.5053 448.118 84.357C447.979 85.6058 448.865 86.8546 448.445 87.9742C448.165 88.7492 447.745 89.4814 447.279 90.1704C446.858 90.1704 446.392 90.1272 445.972 90.0412L445.272 90.0842C445.645 90.4718 445.972 90.9024 446.251 91.333C445.972 91.6344 445.645 91.8928 445.318 92.108C442.379 93.9598 442.192 96.4574 441.119 98.8257C440.045 101.194 440.465 103.864 437.153 105.716C436.313 106.189 436.685 108.687 436.546 110.237C436.453 111.012 436.733 112.39 436.406 112.519L437.058 112.821C440.652 111.486 444.245 110.065 447.885 108.73C448.445 108.472 449.145 108.472 449.704 108.73C451.058 108.299 452.365 107.869 453.718 107.481C453.811 107.481 453.904 107.438 453.951 107.438C454.045 107.051 454.184 106.663 454.277 106.276C454.37 105.802 454.511 105.328 454.651 104.854C459.363 104.854 464.17 104.768 469.023 103.39C470.609 102.917 473.362 102.228 473.782 102.744C475.602 105.242 477.423 103.046 479.428 102.615C481.295 102.228 483.255 102.744 485.075 103.003C489.694 103.778 494.453 103.606 498.98 102.443C500.006 102.185 500.987 101.539 502.012 101.108C501.453 100.505 501.033 99.7301 500.333 99.2995L501.126 98.6105L502.153 97.3617L506.26 98.6966L513.072 96.0267L514.238 95.1224H514.378C514.378 95.0794 514.378 95.0363 514.424 94.9502L516.431 93.3568L517.411 90.2564L515.638 88.7062L514.051 87.7158Z" stroke="#FF00AA" stroke-width="1.52654" stroke-linecap="square" stroke-linejoin="bevel"/>
<path d="M361.233 122.983L360.16 122.94L359.506 122.639V120.442C359.179 120.572 358.947 120.83 358.899 121.174C358.899 120.916 358.899 120.658 358.853 120.399C358.806 120.012 358.76 119.581 358.76 119.194C358.76 118.763 358.76 118.246 358.713 117.686C358.619 115.964 358.48 114.284 359.74 113.552C361.56 112.476 361.84 111.098 362.213 109.375C362.353 108.6 362.54 107.868 362.819 107.136C363.006 106.619 363.192 106.06 363.333 105.5C363.892 103.562 364.546 101.366 367.113 99.6865C368.045 99.0405 369.025 97.6195 369.538 96.0693C369.586 95.6387 369.492 95.1649 369.306 94.7343C369.072 94.0453 368.931 93.3563 368.931 92.6243C369.025 91.1603 369.399 89.7392 369.958 88.4043C369.772 88.2751 369.586 88.1459 369.445 88.0167C367.345 86.2512 365.665 84.055 364.499 81.6436C363.752 80.1794 363.892 78.457 364.826 77.079C365.899 75.4426 367.719 74.3661 369.818 74.1939C371.265 74.0647 372.711 73.8063 374.158 73.3757L374.579 73.3326C375.604 73.3757 376.679 73.4187 377.704 73.4618C381.345 66.7011 384.611 59.7681 387.411 52.663L387.504 52.4476C387.643 52.2754 387.736 52.06 387.877 51.8878C388.016 51.7156 388.063 51.6294 388.157 51.5002L389.043 50.9404C395.109 49.7778 401.269 48.9165 407.475 48.3567C413.028 47.9261 432.626 44.9117 439.112 43.8353L440.092 44.0505C440.699 44.4381 442.331 44.0505 442.985 43.9213C443.452 43.7491 443.918 43.7061 444.431 43.7921C444.945 43.9213 445.365 44.0505 445.738 44.1797L446.718 44.0935H447.045L448.631 44.3089L452.97 43.8783L453.857 43.8353L455.024 44.3951C455.538 45.1271 455.911 45.7299 456.236 46.3328L455.77 47.1079H455.911L457.03 47.84C457.311 48.3998 457.543 49.0027 457.636 49.6486L456.563 51.0266L455.584 51.1558C455.443 51.285 455.35 51.4142 455.257 51.5434C455.257 51.5002 455.257 51.5002 455.257 51.4572L455.07 52.7922C454.324 53.6104 453.484 54.3854 452.645 55.1174C452.363 55.3758 451.991 55.6342 451.524 56.0648L451.197 56.2802C448.958 57.2706 446.624 58.0888 444.245 58.7346L443.638 59.5958L440.279 59.8542H439.952C434.353 61.2322 428.192 62.2657 421.66 63.3853C415.874 64.3757 409.855 65.4093 404.069 66.7011L403.882 66.7441C403.229 66.9595 402.716 67.3471 402.342 67.8637L401.782 68.8541C400.943 70.2753 400.148 71.6963 399.309 73.1603C402.155 72.8589 404.955 72.4283 407.755 71.8255L408.082 71.7823L409.901 71.8255C415.174 71.9977 420.167 72.1699 425.067 70.7919C426.094 70.4905 427.167 70.7489 428.099 71.0073C428.426 71.0933 428.706 71.1795 428.94 71.2225C429.406 71.3087 429.874 71.3949 430.386 71.5241L430.667 71.5671L431.692 72.8589C431.553 73.9785 431.833 75.0982 432.392 76.0886L432.346 76.5192C432.485 76.6054 432.672 76.6914 432.765 76.7345L433.14 76.9929C433.419 77.2512 433.746 77.5096 434.072 77.725L434.679 78.8014C434.679 79.189 434.492 79.5336 434.258 79.792L433.653 80.1364C433.372 80.2226 433.092 80.2656 432.813 80.3086C432.626 80.3518 432.44 80.3948 432.206 80.4378L431.926 80.567C429.874 81.299 428.24 82.72 427.399 84.6148L426.28 85.3469C412.655 86.4234 401.736 87.8445 391.843 89.7823C391.657 89.8253 391.47 89.9115 391.284 90.0407C389.697 94.0453 387.877 98.2655 384.75 102.055C383.35 103.734 382.884 104.552 382.745 104.854C384.377 107.395 382.557 108.902 381.484 109.806C381.111 110.107 380.784 110.409 380.504 110.796C379.804 111.787 379.57 113.208 379.338 114.543C379.291 114.844 379.245 115.189 379.152 115.49C379.058 115.878 379.011 116.222 378.918 116.61V116.696L377.938 117.643L377.752 117.686C376.445 118.074 375.091 118.504 373.831 118.935L372.804 118.892C372.572 118.763 372.292 118.763 372.011 118.892C370.331 119.538 368.699 120.184 367.019 120.873C365.013 121.519 363.099 122.251 361.233 122.983ZM361.279 115.533C361.186 116.222 361.186 116.911 361.279 117.557C361.326 118.16 361.372 118.763 361.326 119.28C361.326 119.581 361.326 119.883 361.372 120.184V120.27C362.865 119.71 364.313 119.107 365.806 118.548C367.486 117.902 369.165 117.213 370.845 116.567C371.592 116.265 372.431 116.222 373.225 116.394C374.204 116.05 375.279 115.749 376.304 115.404C376.352 115.275 376.352 115.103 376.397 114.973C376.445 114.672 376.491 114.371 376.538 114.069C376.818 112.562 377.097 110.839 378.077 109.418C378.497 108.859 378.965 108.385 379.524 107.954C380.691 106.964 380.877 106.792 380.177 105.844C379.431 104.811 379.991 103.519 382.511 100.505C385.497 96.9305 387.223 92.7965 388.763 88.878L389.043 88.4473C389.604 87.8875 390.303 87.5 391.143 87.3277C400.943 85.39 411.768 83.9688 425.113 82.8924C426.233 80.8254 428.146 79.2322 430.433 78.3278C430.013 78.0694 429.686 77.6388 429.592 77.2082C429.546 77.036 429.546 76.9068 429.592 76.7345C429.126 75.7872 428.846 74.7537 428.799 73.6771L428.24 73.591C427.867 73.5479 427.54 73.4187 427.167 73.3326C426.653 73.1604 426.14 73.0743 425.626 73.1173C420.307 74.6245 414.848 74.4522 409.575 74.2369L407.941 74.1939C404.302 74.969 400.616 75.4857 396.882 75.7441L395.575 73.9785C396.743 71.8685 398.002 69.7155 399.216 67.6485L399.823 66.6581C400.43 65.6245 401.969 64.4619 403.369 64.2897C409.201 62.9978 415.174 61.9643 421.007 60.9739C427.54 59.8542 433.699 58.8208 439.299 57.4428L439.672 57.3998H440.138L442.379 57.2274L442.752 56.5384C445.131 55.8926 447.465 55.0744 449.751 54.127L450.731 53.3088C451.338 52.7922 451.945 52.2754 452.504 51.6726C452.504 50.8544 452.877 50.0362 453.531 49.4764L453.111 49.5194L452.645 49.4764L452.224 49.6486L450.265 49.907L448.772 48.9165C448.772 48.8304 448.724 48.7443 448.677 48.6582C448.258 47.5385 448.772 47.0218 449.238 46.7635C449.331 46.7204 449.377 46.6773 449.47 46.6773C449.097 46.9787 449.004 47.4955 449.284 47.8831L450.077 46.5912L448.538 46.7635H448.258L446.672 46.5481L445.552 46.6343L444.897 46.5481C444.572 46.4189 444.199 46.2897 443.872 46.2037L443.592 46.2897C442.518 46.5481 440.606 47.0218 439.019 46.3759C433.419 47.2802 413.494 50.3806 407.569 50.8544C401.689 51.328 395.809 52.1462 390.023 53.2658L389.743 53.6534C386.804 61.06 383.397 68.2943 379.57 75.3135L378.358 76.0024C377.097 75.9594 375.838 75.9164 374.579 75.8302C373.038 76.2608 371.499 76.5622 369.913 76.6914C368.699 76.7776 367.626 77.4236 367.019 78.3708C366.552 79.0598 366.458 79.921 366.833 80.6532C367.813 82.7632 369.306 84.6579 371.125 86.2081C371.499 86.4665 371.872 86.7249 372.245 86.9832L372.758 88.4043C372.106 89.7823 371.685 91.2895 371.592 92.7965C371.592 93.2273 371.685 93.6579 371.872 94.0885C372.104 94.9067 372.385 95.8109 372.104 96.7583C371.872 97.5334 370.845 100.246 368.745 101.667C366.926 102.873 366.506 104.38 365.945 106.146C365.758 106.749 365.572 107.351 365.34 107.954C365.106 108.557 364.965 109.203 364.826 109.849C364.358 111.658 363.94 113.854 361.279 115.533ZM432.16 76.5622L432.067 77.4666C432.206 77.2944 432.299 77.079 432.253 76.8637C432.253 76.7776 432.206 76.6914 432.16 76.5622ZM437.619 113.983L436.545 113.94L435.94 113.638L435.985 111.442C435.658 111.572 435.426 111.83 435.379 112.131C435.379 111.873 435.379 111.615 435.379 111.399C435.333 111.012 435.333 110.581 435.379 110.194C435.426 109.763 435.426 109.289 435.426 108.729C435.426 107.05 435.379 105.414 436.64 104.725C438.552 103.648 438.926 102.313 439.345 100.591C439.531 99.8587 439.765 99.0836 440.045 98.3946C440.279 97.8779 440.465 97.3611 440.652 96.8013C441.352 94.9497 442.099 92.7965 444.665 91.1603C444.572 91.0741 444.524 90.9881 444.431 90.9449L444.104 90.2991L445.272 88.921L445.645 88.878L445.972 88.8349H446.345L446.718 88.878C446.952 88.4473 447.184 88.0167 447.372 87.5431C447.418 87.1124 447.372 86.6818 447.231 86.2512C446.997 85.5622 446.951 84.8732 446.997 84.1842C447.231 82.4186 447.791 80.6962 448.677 79.103C448.538 78.8014 448.445 78.457 448.351 78.1126C448.304 77.8972 448.211 77.5958 448.118 77.4236C446.018 75.701 444.292 73.591 443.124 71.2225C442.424 69.8447 442.518 68.2083 443.404 66.9165C444.618 65.1509 446.672 64.0313 448.911 63.9451C450.497 63.8159 452.084 63.6007 453.624 63.2131L453.997 63.17L457.263 63.3423C461.09 56.969 464.636 49.261 467.763 42.4573L468.089 41.8113C468.229 41.6391 468.369 41.4237 468.509 41.2515L468.836 40.8639L469.675 40.3473C475.741 39.1845 481.901 38.3664 488.107 37.8497C494.546 37.3759 500.287 36.73 505.606 35.9119H505.699L520.258 34.663L521.377 35.0937L522.311 36.0841L522.824 36.6009L523.151 36.9453L523.338 37.1607L523.011 38.1511H523.058L524.457 39.3569V39.7875C524.457 40.3903 524.411 40.9931 524.411 41.5961L523.851 42.1989L524.363 42.8017C524.318 43.4907 524.27 44.1797 524.224 44.8257L523.151 45.9022H523.058L519.372 46.6773H519.558L520.677 47.4955L521.004 48.3567L519.884 49.95L516.524 50.2514H515.965L509.899 50.9404C501.64 53.8686 494.78 55.2036 483.721 55.9786C483.487 56.151 482.928 56.7108 481.714 58.5624L481.668 58.6485C480.501 60.414 479.521 61.9643 478.541 63.5145C482.275 63.2992 486.007 62.8255 489.694 62.1365L490.021 62.0935L491.98 62.1796C497.673 62.438 503.04 62.6533 508.406 61.3184C509.479 61.06 510.599 61.3184 511.531 61.5767C511.858 61.6629 512.185 61.749 512.465 61.792C512.979 61.8782 513.492 62.0073 514.006 62.0935L514.285 62.1365L515.311 63.4715C515.172 64.548 515.358 65.6245 515.965 66.5719L515.918 67.0025C516.058 67.0887 516.245 67.1747 516.338 67.2179L516.711 67.4331C517.038 67.6915 517.365 67.9499 517.738 68.1651L518.345 69.2847C518.297 69.6723 518.111 70.0169 517.831 70.2753L517.224 70.6197C516.945 70.7059 516.665 70.7489 516.338 70.7919C516.104 70.8351 515.872 70.8781 515.638 70.9211L515.358 71.0503C513.165 71.6963 511.345 73.1173 510.319 74.969L509.245 75.658C494.594 76.5622 482.741 77.8542 472.055 79.6628C471.682 79.7058 471.355 79.878 471.075 80.1364L470.189 80.567L469.675 80.61L469.443 80.567C469.209 81.0838 468.975 81.6436 468.743 82.2464C467.95 84.1842 467.063 86.3373 466.082 88.1459L466.316 88.189C467.016 88.4043 467.716 88.7488 468.275 89.2225C468.602 89.5239 469.023 89.7392 469.489 89.8253C470.889 89.9115 472.802 89.6961 474.062 88.9641C476.721 87.3708 479.148 87.5431 481.248 87.7153C481.855 87.7583 482.462 87.8014 483.068 87.8014C483.907 87.8014 484.701 87.8875 485.541 88.0598C487.407 88.3181 488.853 88.5765 490.674 87.3708C491.653 86.7249 492.867 87.0263 494.08 87.5L507.146 85.6052H507.519L511.765 86.079L514.472 86.7249L514.892 86.8971L516.711 88.0598L518.485 89.6101L518.858 90.8157L517.878 93.9163L517.458 94.5191L515.451 96.1123L515.311 95.9831L515.124 96.1123L515.265 96.2846L514.099 97.1889L513.772 97.4042L506.958 100.074L506.026 100.117L502.853 99.0836L502.433 99.5573C502.573 99.7296 502.667 99.8587 502.806 100.031C502.946 100.203 503.085 100.419 503.272 100.591L502.853 102.442C502.526 102.572 502.246 102.744 501.967 102.873C501.219 103.304 500.426 103.605 499.633 103.864C494.919 105.069 489.974 105.285 485.168 104.466L484.187 104.294C482.741 104.036 481.294 103.777 480.035 104.036C479.568 104.165 479.102 104.337 478.682 104.552C477.328 105.155 475.135 106.189 473.269 103.95C472.848 103.95 471.916 104.122 469.723 104.725C465.057 106.06 460.39 106.232 456.004 106.232C455.957 106.404 455.911 106.576 455.863 106.706C455.77 107.05 455.677 107.395 455.584 107.739L455.536 107.868L454.511 108.729L454.37 108.773C453.018 109.16 451.618 109.591 450.404 109.978L449.377 109.935C449.145 109.849 448.865 109.849 448.631 109.935C446.951 110.581 445.224 111.227 443.545 111.873C441.445 112.519 439.531 113.294 437.619 113.983ZM438.085 106.706C437.992 107.351 437.945 108.04 437.992 108.686C437.992 109.246 437.992 109.849 437.945 110.366C437.945 110.667 437.945 110.926 437.945 111.227C439.438 110.667 440.885 110.107 442.379 109.548C444.058 108.902 445.785 108.256 447.465 107.61C448.211 107.308 449.004 107.265 449.797 107.438C450.777 107.136 451.897 106.792 452.97 106.447C453.018 106.318 453.063 106.146 453.111 106.017C453.204 105.715 453.251 105.414 453.345 105.112L453.484 104.639L454.79 103.691C459.27 103.691 464.077 103.605 468.789 102.27C472.755 101.151 474.296 101.108 475.041 102.141C475.648 102.959 475.835 102.959 477.328 102.27C477.935 101.926 478.635 101.71 479.335 101.538C481.107 101.194 482.928 101.495 484.562 101.797C484.887 101.84 485.214 101.926 485.494 101.969C489.928 102.744 494.453 102.529 498.794 101.452C499.26 101.323 499.773 101.108 500.192 100.849C500.053 100.677 499.913 100.548 499.726 100.419L499.587 98.5238L500.287 97.9209L501.219 96.7583L502.712 96.3277L506.306 97.4903L512.465 95.0789L513.492 94.2607L513.585 94.2177L513.679 94.1315L515.404 92.7535L516.058 90.6865L514.938 89.6961L513.538 88.8349L511.158 88.2751L507.379 87.8875L494.126 89.7823L493.426 89.6961C493.007 89.5239 492.54 89.3517 492.074 89.2655C489.414 90.9449 487.034 90.6005 485.121 90.2991C484.421 90.1699 483.768 90.1267 483.068 90.0837C482.368 90.0837 481.714 90.0407 481.062 89.9975C479.102 89.8684 477.421 89.7392 475.509 90.8589C473.316 92.1937 470.236 92.1507 469.396 92.1077C468.416 91.9785 467.529 91.6339 466.782 91.0311C466.457 90.7727 466.036 90.5573 465.616 90.3851C465.057 90.2559 464.496 90.1267 463.936 90.0407L463.002 88.2321C464.216 86.3804 465.336 83.6244 466.363 81.213C466.782 80.2226 467.157 79.2322 467.529 78.414L469.116 77.725C469.35 77.768 469.536 77.8542 469.723 77.8972C470.282 77.5096 470.936 77.2512 471.636 77.122C482.228 75.3135 493.94 74.0647 508.406 73.1603C509.758 71.0933 511.858 69.5431 514.331 68.7681C513.911 68.5097 513.631 68.1221 513.538 67.6485C513.492 67.4763 513.492 67.3471 513.538 67.1747C513.072 66.2705 512.838 65.2371 512.792 64.2465L512.138 64.1174C511.765 64.0743 511.392 63.9451 511.019 63.859C510.458 63.6867 509.851 63.6007 509.245 63.6007C503.506 65.0217 497.673 64.7633 492.028 64.5481L490.253 64.4619C485.68 65.2801 481.062 65.7969 476.396 65.9691L475.182 64.1605C476.582 61.9643 477.935 59.8542 479.568 57.3136L479.614 57.2274C481.389 54.5146 482.368 53.5242 483.487 53.4812C494.407 52.706 501.173 51.4142 509.245 48.529L509.572 48.4429L515.451 47.84L515.031 47.2802L515.172 46.7203L515.592 46.1175C516.151 45.6869 516.665 45.2132 517.224 44.7825L517.831 44.4811L521.424 43.7491H521.377L521.097 43.0171L520.911 43.2323L520.772 43.1031C520.631 42.9739 520.445 42.8449 520.304 42.6725L520.631 41.7683V41.7253L520.677 41.6821L521.051 40.6917L517.738 40.8209L516.897 38.6247L517.972 37.8927L518.39 37.7205L520.072 37.2899L519.977 37.1607L506.119 38.3233C500.753 39.1845 494.967 39.8305 488.434 40.3041C482.507 40.7779 476.675 41.5529 470.843 42.6295V42.6725L470.516 43.0601L470.329 43.4477C467.063 50.5529 463.329 58.6054 459.316 65.1939L458.104 65.7969C456.797 65.7537 455.538 65.6677 454.231 65.6245C452.551 66.0551 450.87 66.3135 449.145 66.4427C447.745 66.5289 446.485 67.1747 445.738 68.2513C445.318 68.8541 445.272 69.5863 445.552 70.2753C446.579 72.3853 448.072 74.2369 449.984 75.7441C450.497 76.1316 450.684 76.7776 450.918 77.5096C451.011 77.768 451.058 78.0264 451.197 78.2848C451.104 78.1986 451.011 78.1126 450.918 78.0264L451.384 79.6196C450.497 81.1268 449.891 82.8062 449.658 84.4856C449.658 84.9162 449.704 85.3038 449.845 85.7344C450.17 86.5957 450.17 87.5431 449.891 88.4043C449.565 89.2655 449.097 90.0407 448.584 90.8157L447.558 91.2895L447.465 92.1507C447.138 92.4951 446.718 92.8397 446.297 93.0981C444.431 94.3037 443.872 95.8109 443.265 97.5334C443.079 98.0932 442.845 98.6961 442.565 99.2989C442.331 99.9018 442.099 100.505 441.958 101.151C441.352 102.959 440.792 105.112 438.085 106.706ZM515.779 67.0025L515.638 67.9929C515.824 67.8207 515.872 67.6053 515.872 67.3901C515.872 67.2609 515.824 67.1317 515.779 67.0025ZM517.738 112.002L515.918 110.366C516.058 110.107 516.245 109.892 516.431 109.634C516.711 109.246 516.992 108.859 517.131 108.385C517.178 108.04 517.178 107.653 517.178 107.308C517.131 106.576 517.131 105.801 517.504 105.155C518.485 103.648 520.118 101.108 522.963 102.098C523.151 102.141 523.338 102.227 523.524 102.313L523.851 102.442C523.804 101.969 523.663 101.495 523.524 101.021C523.245 99.9879 524.457 98.6099 524.784 98.3516C525.204 98.0501 525.811 98.0071 526.324 98.2655C526.604 98.4377 526.931 98.3085 528.004 97.2319C528.843 96.4137 530.15 95.2081 531.784 95.4233C531.923 95.2081 532.063 94.9927 532.204 94.7775C532.39 94.5621 532.623 94.2177 532.809 93.8731C533.602 92.6243 534.443 91.2895 535.843 91.7631C536.263 91.9353 536.589 91.7631 537.57 90.7727C537.943 90.3851 538.363 90.0407 538.782 89.6961C539.063 89.5239 539.343 89.2655 539.623 89.0502C540.65 88.189 542.095 87.0263 544.102 87.5431C544.616 87.5 545.082 87.3277 545.455 87.0263L545.129 86.122L546.155 85.476H546.341C546.482 85.1746 546.668 84.8732 546.902 84.5718C547.695 83.323 549.468 82.9354 550.775 83.6674C550.821 83.7106 550.868 83.7106 550.914 83.7536C554.321 82.0742 556.98 79.9642 559.78 77.725C561.694 76.1747 563.653 74.6245 565.987 73.0312C565.38 72.8159 564.821 72.6005 564.26 72.4283C562.346 71.6963 560.807 71.1365 558.428 71.3949C558.055 71.4379 557.68 71.3517 557.355 71.1365C556.98 71.1365 556.607 71.0073 556.328 70.7489C555.955 70.6197 555.628 70.4905 555.255 70.4043C554.834 70.2753 554.462 70.1461 554.041 69.9737C553.807 69.8445 553.528 69.7585 553.294 69.6723C552.968 69.8015 552.595 69.9307 552.221 70.0169C550.914 70.3183 549.702 70.0599 548.582 69.8445C547.975 69.7155 547.368 69.6293 546.762 69.5863C544.475 69.5431 542.423 68.8541 540.416 68.1651C539.436 67.8207 538.502 67.5193 537.523 67.2609C536.356 66.9165 535.329 66.3567 534.396 65.6245C533.836 65.2371 533.79 64.6772 533.929 64.0313C532.716 63.4284 531.504 62.8255 530.384 62.1796L529.777 60.8878C529.823 60.7155 529.823 60.6294 529.87 60.5432C527.677 58.9068 527.163 57.8734 526.604 56.7108C526.231 55.8926 525.763 55.1174 525.204 54.3854C523.431 52.017 524.27 50.0362 525.25 48.572C525.857 47.6247 526.37 46.6773 526.838 45.7299L526.884 45.6007L527.211 45.2132C530.243 42.7157 533.697 41.8113 537.382 40.8209L538.27 40.5625L538.782 40.1749C541.862 38.4525 542.375 37.8497 542.516 37.6343C543.029 36.9884 543.495 36.9453 544.662 36.7731C545.502 36.6439 546.855 36.4717 549.375 35.998C549.795 35.7827 550.121 35.4812 550.355 35.0937L551.102 34.5769L553.389 33.888C554.928 33.4142 556.561 32.9406 558.148 32.4668C559.873 31.9932 561.553 31.3904 563.187 30.7014C565.007 29.9262 566.873 29.2804 568.787 28.7636H569.533C570.933 28.7636 572.333 28.6344 573.733 28.419C574.012 28.376 574.992 28.1176 575.739 27.9024C576.626 27.644 577.558 27.4286 578.446 27.2564C580.778 27.0412 583.112 27.0842 585.399 27.2994C585.724 27.3426 586.005 27.3856 586.331 27.4286L586.985 27.1272L587.638 26.998L589.411 27.0842L591.697 27.2564L594.077 26.6536L594.404 26.6106L597.063 26.5244C598.09 26.223 599.117 26.0938 600.19 26.1368C600.936 26.1368 601.729 26.1798 602.477 26.1798C604.39 26.309 606.35 26.223 608.263 25.8784C615.682 24.3282 624.314 22.6488 632.9 21.9598C639.433 21.5292 645.919 20.6679 652.358 19.4622C654.972 18.9455 657.631 18.8593 660.244 19.1607C661.738 19.3331 663.231 19.5913 663.558 20.7971C663.883 22.0029 662.765 22.6488 661.831 23.2086L661.738 23.2947C662.578 23.6392 663.371 24.156 664.024 24.8019C664.351 25.1034 664.677 25.4048 665.004 25.62L664.911 27.601C662.204 29.2372 659.404 31.0028 656.417 32.9836L656.185 33.1128C647.646 36.6439 640.973 38.0649 629.914 38.8831C629.4 39.0553 628.98 39.3999 628.655 39.8305L627.955 41.0363C625.201 45.9883 622.589 50.639 620.628 55.7634C620.348 56.4524 620.161 57.0552 619.928 57.615C618.622 61.1461 617.829 63.2561 614.795 67.1747C614.236 68.3375 613.675 69.5431 613.116 70.6197C614.002 72.6005 612.509 73.8924 611.668 74.5814C611.343 74.8398 611.063 75.1412 610.829 75.4426C610.27 76.347 610.036 77.5527 609.85 78.8014C609.802 79.103 609.756 79.3612 609.709 79.6628C609.522 80.6532 609.477 81.3852 609.382 82.0312C609.195 83.9688 609.009 84.9162 607.05 87.5C606.583 88.0598 606.023 88.5765 605.416 89.0502C605.229 89.1794 605.043 89.3517 604.856 89.4809L604.716 89.8253C604.577 90.2129 604.39 90.5573 604.25 90.9449C603.083 93.8731 601.543 96.6721 599.677 99.2989C598.324 101.237 597.39 102.442 596.038 102.098C595.197 101.883 594.963 101.237 594.87 100.548L594.731 101.021C594.684 101.194 594.638 101.323 594.638 101.495C594.497 102.399 594.17 104.122 591.884 104.639C591.884 105.371 591.697 106.146 591.465 106.835L589.972 107.653L588.197 107.395L587.217 106.749C586.985 106.49 586.704 106.275 586.424 106.103C585.724 105.629 584.838 105.026 584.745 103.993C584.558 101.753 584.278 98.7391 587.778 96.6291L588.058 96.4569C588.197 95.6817 588.338 94.9927 588.478 94.2607C587.638 93.8731 587.499 92.9689 587.451 92.2367C587.358 91.3755 587.451 90.4713 588.292 90.0837C588.897 89.8253 589.365 89.4377 589.69 88.921C589.972 87.8875 590.111 86.811 590.111 85.6914C590.111 84.1412 590.438 82.634 591.045 81.213C590.951 80.0072 590.904 78.6292 591.977 77.9834C592.165 77.8542 592.351 77.768 592.49 77.5958C593.004 76.39 593.517 75.2704 594.077 74.1077C594.17 73.4618 594.358 72.8159 594.544 72.213C594.731 71.7393 594.87 71.2657 595.011 70.7489C595.477 69.1557 595.944 67.3471 597.763 65.8399L597.717 65.6677L597.811 64.8495C598.556 63.4715 599.304 62.0504 600.05 60.6724C599.863 60.1556 599.77 59.5958 599.77 59.036C599.911 55.6772 601.124 54.041 602.383 52.3616C603.223 51.285 603.923 50.1653 604.529 49.0027C605.463 47.0649 605.65 45.3855 604.95 44.4811C604.25 43.5769 602.85 43.4477 601.777 43.4907C601.029 43.4907 600.283 43.1463 599.117 42.5003C598.697 42.2851 598.277 42.0697 597.856 41.8975C597.624 41.8975 597.25 41.8975 596.597 41.9835L587.824 44.9979H586.892L586.051 44.6965L585.351 43.6199L584.885 43.4907L584.278 43.6199C583.765 43.7921 583.206 43.9213 582.645 44.0075H582.551C582.131 44.1797 581.619 44.2659 581.151 44.2227C579.985 44.3519 578.912 44.4381 578.119 44.4811C577.699 44.5243 577.372 44.5243 577.092 44.5673C576.579 44.6103 576.019 44.6533 575.506 44.6965V44.6103L575.412 44.5243V44.6965H575.085C573.219 44.7395 571.353 45.0409 569.58 45.6007C567.946 46.0745 566.36 46.6773 564.821 47.4093C563.607 48.0123 563.094 48.1845 558.473 49.0457C556.561 49.3902 554.648 49.9931 552.875 50.7682C551.382 51.371 549.841 51.9309 548.302 52.3616C547.835 52.7922 547.275 53.0936 546.668 53.2658C547.228 53.438 547.789 53.6102 548.302 53.8256L549.702 53.2228C552.034 53.9118 554.087 54.5146 555.955 54.9882C556.234 55.0314 556.514 54.9452 556.794 54.816C557.448 54.4716 558.241 54.2562 559.034 54.2992L560.434 55.5912L560.387 56.4524C560.994 56.5816 561.46 56.7538 561.928 56.883C563.14 57.2274 564.353 57.4858 565.614 57.615H565.707H566.267C566.967 57.7872 567.667 57.9596 568.319 58.1318C569.673 58.5624 571.026 58.8638 572.426 58.993C574.572 59.1222 575.319 60.0696 575.553 60.8016C576.439 60.5863 577.326 60.6724 578.119 61.06C578.865 61.4475 579.799 62.2657 580.126 64.1174C580.358 65.5815 580.872 65.7969 581.851 65.9691C583.112 66.2275 584.278 66.5719 585.492 67.0025L586.238 67.7345C586.704 68.8973 588.851 74.7967 586.704 78.0694C586.331 80.0934 586.099 80.4808 585.538 80.7824C584.558 81.3422 583.624 81.988 582.738 82.7202C580.919 84.1842 578.819 85.7775 575.833 86.1651C573.267 86.4665 570.512 88.1028 567.853 89.6961C566.78 90.3421 565.707 90.9881 564.587 91.5478L564.028 92.3229C562.253 93.0119 560.573 93.7871 558.894 94.6051C557.355 95.3373 555.628 96.1985 553.482 97.1027C553.014 97.4903 552.641 97.9639 552.407 98.5238C551.989 99.342 551.475 100.462 549.468 100.849C549.141 100.892 548.862 100.978 548.628 101.021L547.975 101.323C547.416 103.519 546.016 103.734 544.802 103.648C544.662 103.648 544.523 103.648 544.429 103.648C543.962 103.82 543.309 104.466 542.75 105.026C542.609 105.198 542.423 105.328 542.282 105.5C540.509 107.265 537.989 107.438 535.75 107.567C534.909 107.61 534.116 107.696 533.323 107.825C532.763 107.911 532.204 107.911 531.643 107.825L531.223 107.782L530.011 106.318C530.057 106.103 530.104 105.887 530.15 105.672V105.586H529.59L528.19 105.155C526.604 106.533 524.924 107.911 523.151 109.375C523.058 109.418 523.011 109.505 522.918 109.591C522.497 110.021 521.797 110.71 520.677 110.581C520.445 110.538 520.211 110.495 520.024 110.409C519.745 110.667 519.465 110.926 519.138 111.141C518.672 111.442 518.204 111.701 517.69 111.959L517.738 112.002ZM521.845 104.983C522.497 105.069 522.777 105.5 523.104 105.887L523.245 106.103V106.318L524.69 105.069C523.945 105.069 523.197 104.897 522.497 104.596L522.031 104.423C521.424 104.208 520.958 104.596 519.884 106.189C520.118 105.844 520.397 105.586 520.724 105.285L521.845 104.983ZM532.577 102.486L533.79 104.552C533.697 104.596 533.65 104.682 533.602 104.768C533.509 104.94 533.463 105.069 533.416 105.241C534.302 105.069 535.19 104.983 536.123 104.94C538.036 104.811 539.856 104.682 540.929 103.648C541.068 103.519 541.209 103.347 541.35 103.218C542.189 102.356 543.029 101.495 544.148 101.151C544.616 101.021 545.129 100.978 545.641 101.021H545.875C545.968 100.806 546.062 100.548 546.062 100.289C546.109 100.031 546.248 99.7726 546.389 99.5573L546.809 99.2128C547.228 98.9975 547.648 98.7821 548.116 98.5669L548.348 98.4807C548.675 98.3946 549.095 98.3085 549.514 98.2223C550.168 98.0932 550.262 97.9639 550.589 97.2751C551.007 96.2845 551.707 95.4665 552.594 94.8205L552.828 94.6913C554.975 93.7871 556.607 93.0119 558.241 92.1937C559.873 91.3755 561.273 90.6865 562.953 90.0407C563.046 89.7392 563.28 89.4809 563.607 89.3086C564.726 88.7057 565.894 88.0167 567.06 87.3708C569.953 85.6483 572.985 83.8398 576.112 83.4952C578.306 83.2368 579.939 81.945 581.619 80.61C582.506 79.878 583.438 79.2322 584.418 78.6292C584.465 78.414 584.605 77.9402 584.745 77.1652L584.978 76.6484C586.145 75.1412 585.585 71.6532 584.558 68.8111C583.719 68.5097 582.878 68.2513 581.992 68.0791C579.706 67.6915 578.539 66.5289 578.119 64.2035C577.979 63.5145 577.746 62.9978 577.465 62.8686C577.233 62.7825 576.906 62.7825 576.672 62.8686L575.646 64.1605L573.592 64.2465C573.36 63.9882 573.126 63.7299 572.799 63.5576C572.333 63.3853 571.867 63.0839 571.539 62.6963L571.773 60.9739C570.56 60.7586 569.346 60.4571 568.133 60.1126C567.526 59.9404 567.012 59.8112 566.407 59.682C566.219 59.682 566.033 59.682 565.846 59.682C564.446 59.5528 563.046 59.2944 561.694 58.8638C560.994 58.6485 560.248 58.4762 559.221 58.261L558.194 57.0122V56.84C557.587 57.0552 556.98 57.1414 556.328 57.1414L555.907 57.0982C554.228 56.6676 552.407 56.151 550.402 55.548C550.307 55.6772 550.168 55.8064 550.028 55.9356L548.628 56.151L548.302 56.0218C547.089 55.548 545.968 55.1174 544.941 55.1606C544.568 55.1606 544.195 55.2036 543.823 55.2896L542.189 53.9978C542.468 51.6725 544.429 51.1988 545.641 50.8974C546.062 50.8544 546.482 50.6821 546.855 50.4668C546.948 50.3806 547.041 50.2945 547.135 50.1654L547.182 50.1223L547.695 49.8208C549.282 49.3902 550.775 48.8735 552.268 48.2275C554.228 47.3663 556.28 46.7635 558.38 46.3759C562.814 45.5577 563.094 45.4285 563.98 44.9979C565.614 44.2227 567.294 43.5769 569.067 43.0601C571.073 42.4573 573.126 42.1127 575.272 42.0267L575.599 41.9835H575.692C576.16 41.9405 576.672 41.8975 577.185 41.8543C577.465 41.8113 577.885 41.8113 578.306 41.7683C579.192 41.7253 580.265 41.6391 581.385 41.5099L582.365 41.7253C582.178 41.5961 581.945 41.5529 581.712 41.5529C581.851 41.5099 581.945 41.5099 582.085 41.4669L582.412 41.3807C582.924 41.2945 583.392 41.1655 583.858 41.0363L583.999 40.9931C584.324 40.9071 584.651 40.8639 585.024 40.7779H585.538L585.724 40.8209L587.404 41.2945L588.058 42.1989L596.55 39.2707H596.69C597.438 39.2277 597.95 39.1845 598.324 39.1845C599.024 39.1845 599.724 39.5291 600.843 40.1319C601.263 40.3903 601.683 40.6057 602.15 40.7779C605.277 40.6917 606.816 41.8543 607.563 42.8449C608.777 44.5243 608.729 46.9787 607.329 49.7347C606.677 51.0696 605.883 52.3184 604.95 53.4812C603.783 55.0744 602.897 56.237 602.804 58.9069C602.804 59.2944 602.897 59.682 603.036 60.0265L603.083 60.1988L602.99 61.103C602.243 62.5241 601.45 63.9451 600.704 65.3661C600.704 65.6677 600.704 65.9259 600.704 66.2275L600.19 67.1317C598.697 68.1651 598.324 69.5431 597.904 71.0933C597.763 71.6101 597.624 72.1699 597.39 72.7297C597.204 73.2895 597.063 73.8493 596.97 74.4092L596.877 74.6675C596.27 75.9164 595.711 77.1652 595.151 78.5L594.87 78.9306C594.59 79.189 594.263 79.4044 593.984 79.6196C593.938 80.0934 593.938 80.567 594.031 81.0406L593.938 81.5574C593.377 82.8062 593.051 84.1842 593.051 85.5622C593.004 86.854 592.865 88.1029 592.538 89.3947L592.445 89.6961C591.977 90.5143 591.277 91.2463 590.438 91.7631C590.438 91.8493 590.438 91.9353 590.438 92.0215C590.578 92.0645 590.717 92.1077 590.858 92.1507L591.651 93.4855C591.417 94.6483 591.184 95.8539 590.951 97.1889L590.345 98.0501C590.111 98.1793 589.831 98.3085 589.645 98.4377C587.638 99.6434 587.592 101.108 587.778 103.433C587.965 103.605 588.197 103.734 588.385 103.907C588.804 104.165 589.224 104.509 589.551 104.854C589.645 104.509 589.597 104.208 589.458 103.864L589.411 103.734C589.224 103.304 589.131 102.83 589.038 102.356L589.504 101.28C589.924 100.978 590.345 100.634 590.811 100.332L592.304 101.065C592.304 101.021 592.304 100.935 592.351 100.892C592.397 100.677 592.444 100.462 592.49 100.246L592.77 99.1697L593.097 98.6099C593.47 98.2655 593.844 97.8779 594.17 97.4903C594.124 97.0597 594.124 96.5861 594.217 96.1553L595.57 95.0789C595.663 95.0789 595.756 95.0789 595.851 95.0789C596.411 94.9927 597.017 95.1219 597.438 95.5095L597.763 96.5429C597.717 96.8444 597.624 97.1459 597.484 97.4473C597.531 97.5765 597.577 97.7487 597.624 97.8779C597.624 97.8779 597.624 97.8348 597.67 97.8348C599.397 95.3803 600.843 92.7105 601.963 89.9545C602.104 89.5669 602.29 89.1794 602.429 88.7919C602.523 88.5335 602.616 88.3181 602.756 88.0598L603.456 88.0167L603.083 87.6722C603.316 87.4569 603.597 87.2416 603.877 87.0263C604.343 86.7249 604.716 86.3373 605.09 85.9498C606.77 83.7966 606.816 83.323 606.956 81.6866C607.002 81.0406 607.095 80.2226 607.283 79.146C607.329 78.8876 607.377 78.6292 607.422 78.3278C607.656 76.9498 607.889 75.3566 608.729 74.0647C609.102 73.5479 609.522 73.1173 610.036 72.7297C611.063 71.8255 611.063 71.7393 610.689 71.1795L610.643 70.0599C611.25 68.8111 611.95 67.3901 612.602 66.0121L612.743 65.7969C615.636 62.0935 616.289 60.3279 617.595 56.7538C617.829 56.151 618.061 55.548 618.295 54.859C620.302 49.5625 623.055 44.6103 625.761 39.8305L626.461 38.6247C627.021 37.6343 628.514 36.4717 629.821 36.3855C640.506 35.6104 646.946 34.2324 655.112 30.8736C657.585 29.2372 659.872 27.7732 662.158 26.3522C661.597 25.8784 660.99 25.4909 660.244 25.2326C659.917 25.4909 659.592 25.6632 659.217 25.8354L657.258 24.845C657.258 24.7588 657.258 24.6727 657.211 24.5866C657.117 24.0698 657.024 23.1655 657.911 22.7349C658.192 22.6057 658.424 22.5196 658.751 22.4765C659.031 22.1321 659.404 21.7875 659.778 21.5292C657.492 21.2708 655.158 21.3569 652.919 21.7875C646.385 22.9933 639.76 23.8546 633.134 24.3282C624.689 24.9742 616.148 26.6536 608.822 28.2038C606.723 28.5914 604.529 28.7206 602.383 28.5482C601.683 28.5052 600.936 28.5052 600.236 28.5052C599.397 28.4622 598.604 28.5482 597.811 28.8066L597.39 28.8928L594.684 28.9788L592.258 29.5818L591.79 29.6248L589.317 29.4526L587.965 29.3664L587.078 29.797L585.585 29.6248C585.631 29.6678 585.678 29.711 585.772 29.711C585.585 29.6678 585.399 29.6248 585.258 29.6248C583.112 29.4096 580.965 29.4096 578.819 29.5818C578.539 29.6248 577.326 29.9262 576.533 30.1416C575.785 30.3568 574.992 30.5722 574.199 30.7014C573.826 30.7444 570.792 31.175 569.346 31.0458C567.619 31.5196 565.987 32.0794 564.353 32.7684C562.628 33.5004 560.853 34.1463 558.987 34.663C557.401 35.0937 555.814 35.6104 554.275 36.041L552.407 36.6009C551.801 37.3759 550.868 38.0649 549.934 38.2372C547.368 38.7109 545.968 38.8831 545.129 39.0123L544.568 39.0985C544.195 39.5291 543.355 40.3041 540.323 42.0267L539.902 42.3711L539.389 42.6295L538.175 42.9309C534.909 43.7921 531.784 44.6103 529.217 46.6343C528.75 47.5385 528.19 48.5721 527.536 49.5625C526.65 50.9404 526.604 51.6726 527.397 52.706C528.05 53.5672 528.563 54.4716 529.029 55.4188C529.59 56.5384 529.87 57.1844 531.829 58.6054C532.343 59.036 532.623 59.639 532.529 60.2848C533.65 60.8877 534.816 61.4906 536.029 62.0504L536.684 63.4284C536.636 63.6007 536.589 63.7299 536.589 63.859C537.056 64.2035 537.616 64.4619 538.175 64.6772C539.25 64.9355 540.275 65.3231 541.302 65.6677C543.168 66.3135 544.895 66.9165 546.762 66.9595C547.555 67.0025 548.348 67.0887 549.095 67.2609C549.982 67.4331 550.821 67.6053 551.521 67.4331L551.895 67.3471V67.0025L552.407 66.9595H552.594H552.782H553.062C553.761 67.0455 554.462 67.2609 555.114 67.5623C555.394 67.6915 555.721 67.8207 556.001 67.9069C556.607 68.0361 557.168 68.2513 557.728 68.5527H557.914L558.521 68.7681C561.367 68.5527 563.328 69.2847 565.24 70.0169C566.546 70.5767 567.9 70.9643 569.253 71.2225L569.767 73.4618C566.826 75.2704 564.073 77.2512 561.46 79.4474C558.334 81.945 555.394 84.3134 551.334 86.1651L549.934 86.0358C549.748 85.8636 549.514 85.7344 549.234 85.6483C549.141 85.7344 549.048 85.8206 548.955 85.9498C548.768 86.2081 548.628 86.5096 548.489 86.854L548.441 86.9402L547.975 87.2416L548.209 87.5431C548.021 87.9737 547.741 88.3612 547.368 88.6627C546.716 89.1794 545.082 90.2559 543.402 89.8684C542.795 89.7392 542.329 90.0407 541.35 90.8589C541.023 91.1171 540.695 91.3755 540.323 91.6339C539.995 91.8923 539.716 92.1507 539.436 92.4091C538.596 93.2273 537.382 94.3899 535.656 94.1745C535.47 94.4329 535.236 94.7775 535.05 95.0357C534.816 95.4233 534.584 95.7679 534.35 96.1123C534.256 96.2415 534.116 96.4569 533.977 96.6721C533.556 97.3181 533.277 97.8348 532.623 97.964L531.597 97.8348C531.316 97.6625 531.084 97.7487 529.917 98.8683C529.077 99.6865 527.77 100.892 526.138 100.677C526.463 101.581 526.511 102.572 526.37 103.519L527.443 102.572L528.75 102.313L530.523 102.873L532.577 102.486ZM547.462 85.39H547.555C547.509 85.39 547.462 85.39 547.462 85.39ZM552.082 67.5623C551.755 67.8207 551.568 68.2083 551.614 68.6389C551.662 68.9833 551.848 69.2417 552.128 69.4571L552.082 67.5623ZM572.473 62.1796C572.567 62.3519 572.706 62.5241 572.892 62.6533L572.612 62.2657L572.473 62.1796Z" fill="url(#paint2_linear)"/>
<path d="M387.506 84.6204L380.284 85.7643L380.94 89.287L388.16 88.1432L387.506 84.6204Z" fill="#FF00AA"/>
<path d="M373.324 100.599L366.102 101.743L366.758 105.266L373.98 104.122L373.324 100.599Z" fill="#FF00AA"/>
<path d="M575.414 76.8231L568.194 77.967L568.848 81.4897L576.07 80.3457L575.414 76.8231Z" fill="#FF00AA"/>
<path d="M568.463 81.7776L561.241 82.9214L561.897 86.4442L569.117 85.3002L568.463 81.7776Z" fill="#FF00AA"/>
<path d="M379.502 82.2873L375.265 82.9255L375.873 86.3678L380.11 85.7296L379.502 82.2873Z" fill="#FF00AA"/>
<path d="M482.784 67.9116L457.687 71.6971L458.281 75.0544L483.379 71.2689L482.784 67.9116Z" fill="#FF00AA"/>
<path d="M458.338 75.1468L451.118 76.2907L451.773 79.8134L458.993 78.6695L458.338 75.1468Z" fill="#FF00AA"/>
<path d="M492.822 67.8091L488.584 68.441L489.186 71.8843L493.425 71.2524L492.822 67.8091Z" fill="#FF00AA"/>
<path d="M655.077 25.807L643.335 27.5781L643.883 30.6805L655.626 28.9093L655.077 25.807Z" fill="#FFF922"/>
<path d="M634.996 23.0764L628.135 24.1113L628.684 27.2137L635.546 26.1787L634.996 23.0764Z" fill="#FFF922"/>
<path d="M684.79 14.2364L671.573 16.2298L672.123 19.3322L685.339 17.3387L684.79 14.2364Z" fill="#FFF922"/>
<path d="M667.961 16.779L664.415 17.3139L664.965 20.4162L668.511 19.8813L667.961 16.779Z" fill="#FFF922"/>
<path d="M674.464 22.7366L670.917 23.2655L671.46 26.3688L675.007 25.84L674.464 22.7366Z" fill="#FFF922"/>
<path d="M45.7492 21.659L46.7757 13.8649L47.1957 21.7022L51.5353 23.1232L47.1025 24.2428L46.1225 32.0371L45.6559 24.1998L41.3162 22.7786L45.7492 21.659Z" fill="white"/>
<path d="M45.1896 22.8217L32.124 12.5729L46.6827 21.5298L49.5757 19.2475L48.2226 23.0369L60.7747 33.3287L47.056 24.1135L43.2764 26.6541L45.1896 22.8217Z" fill="white"/>
<path d="M466.964 44.1021L458.998 45.3037L459.547 48.4061L467.514 47.2044L466.964 44.1021Z" fill="#FFF922"/>
<path d="M480.446 34.7111L472.48 35.9127L473.028 39.0151L480.996 37.8134L480.446 34.7111Z" fill="#FFF922"/>
<path d="M409.575 45.7274L402.669 46.7692L403.217 49.8715L410.125 48.8296L409.575 45.7274Z" fill="#FFF922"/>
<path d="M456.392 39.4427L443.126 41.4209L443.669 44.5241L456.936 42.546L456.392 39.4427Z" fill="#FFF922"/>
<path d="M438.247 41.2869L434.702 41.8217L435.252 44.924L438.798 44.3892L438.247 41.2869Z" fill="#FFF922"/>
<path d="M468.448 37.5395L464.901 38.0682L465.445 41.1715L468.991 40.6427L468.448 37.5395Z" fill="#FFF922"/>
<path d="M370.614 87.6384L362.647 88.8401L363.197 91.9423L371.163 90.7408L370.614 87.6384Z" fill="#FF00AA"/>
<path d="M355.216 89.8312L347.248 91.0329L347.799 94.1352L355.764 92.9336L355.216 89.8312Z" fill="#FFF922"/>
<path d="M330.682 94.5546L317.416 96.5328L317.959 99.636L331.227 97.658L330.682 94.5546Z" fill="#FFF922"/>
<path d="M610.386 94.6316L606.84 95.1663L607.389 98.2687L610.935 97.7339L610.386 94.6316Z" fill="#FF00AA"/>
<path d="M342.737 92.6514L339.191 93.1802L339.733 96.2836L343.281 95.7546L342.737 92.6514Z" fill="#FFF922"/>
<path d="M311.983 100.624L304.016 101.826L304.565 104.928L312.532 103.727L311.983 100.624Z" fill="#FFF922"/>
<path d="M232.876 104.043L219.66 106.037L220.209 109.139L233.426 107.146L232.876 104.043Z" fill="#92EAFF"/>
<path d="M276.071 97.401L267.92 98.6305L268.469 101.733L276.621 100.503L276.071 97.401Z" fill="#92EAFF"/>
<path d="M301.786 93.2662L293.635 94.4957L294.183 97.5979L302.336 96.3686L301.786 93.2662Z" fill="#92EAFF"/>
<path d="M264.174 99.2777L241.472 102.702L242.02 105.804L264.724 102.38L264.174 99.2777Z" fill="#92EAFF"/>
<path d="M216.095 106.578L212.549 107.112L213.097 110.215L216.643 109.68L216.095 106.578Z" fill="#92EAFF"/>
<path d="M288.658 95.4222L285.113 95.957L285.663 99.0593L289.209 98.5246L288.658 95.4222Z" fill="#92EAFF"/>
<path d="M303.046 106.182L299.499 106.711L300.043 109.815L303.59 109.286L303.046 106.182Z" fill="#FFF922"/>
<defs>
<linearGradient id="paint0_linear" x1="203.106" y1="7.17714" x2="223.643" y2="112.635" gradientUnits="userSpaceOnUse">
<stop stop-color="#45A2FF"/>
<stop offset="0.15" stop-color="#469EFF"/>
<stop offset="0.29" stop-color="#4994FF"/>
<stop offset="0.42" stop-color="#4F81FF"/>
<stop offset="0.52" stop-color="#556EFF"/>
<stop offset="0.78" stop-color="#3E3ED6"/>
<stop offset="1" stop-color="#FF00AA"/>
</linearGradient>
<linearGradient id="paint1_linear" x1="508.147" y1="37.1206" x2="521.552" y2="158.504" gradientUnits="userSpaceOnUse">
<stop stop-color="#FF00AA"/>
<stop offset="1" stop-color="#2445EA"/>
</linearGradient>
<linearGradient id="paint2_linear" x1="508.788" y1="39.1767" x2="518.118" y2="153.952" gradientUnits="userSpaceOnUse">
<stop stop-color="#FFF922"/>
<stop offset="0.12" stop-color="#FFBF41" stop-opacity="0.77"/>
<stop offset="0.25" stop-color="#FF8D5D" stop-opacity="0.57"/>
<stop offset="0.37" stop-color="#FF6275" stop-opacity="0.39"/>
<stop offset="0.5" stop-color="#FF3F88" stop-opacity="0.25"/>
<stop offset="0.62" stop-color="#FF2397" stop-opacity="0.14"/>
<stop offset="0.75" stop-color="#FF10A1" stop-opacity="0.06"/>
<stop offset="0.87" stop-color="#FF04A8" stop-opacity="0.02"/>
<stop offset="1" stop-color="#FF00AA" stop-opacity="0"/>
</linearGradient>
</defs>
</svg>
